<svg id="my-svg" width="100%" xmlns="http://www.w3.org/2000/svg" xmlns:xlink="http://www.w3.org/1999/xlink" class="flowchart" style="max-width: 1057.45px; background-color: transparent;" viewBox="0 0 1057.44921875 805" role="graphics-document document" aria-roledescription="flowchart-v2"><style>#my-svg{font-family:"trebuchet ms",verdana,arial,sans-serif;font-size:16px;fill:#333;}@keyframes edge-animation-frame{from{stroke-dashoffset:0;}}@keyframes dash{to{stroke-dashoffset:0;}}#my-svg .edge-animation-slow{stroke-dasharray:9,5!important;stroke-dashoffset:900;animation:dash 50s linear infinite;stroke-linecap:round;}#my-svg .edge-animation-fast{stroke-dasharray:9,5!important;stroke-dashoffset:900;animation:dash 20s linear infinite;stroke-linecap:round;}#my-svg .error-icon{fill:#552222;}#my-svg .error-text{fill:#552222;stroke:#552222;}#my-svg .edge-thickness-normal{stroke-width:1px;}#my-svg .edge-thickness-thick{stroke-width:3.5px;}#my-svg .edge-pattern-solid{stroke-dasharray:0;}#my-svg .edge-thickness-invisible{stroke-width:0;fill:none;}#my-svg .edge-pattern-dashed{stroke-dasharray:3;}#my-svg .edge-pattern-dotted{stroke-dasharray:2;}#my-svg .marker{fill:#333333;stroke:#333333;}#my-svg .marker.cross{stroke:#333333;}#my-svg svg{font-family:"trebuchet ms",verdana,arial,sans-serif;font-size:16px;}#my-svg p{margin:0;}#my-svg .label{font-family:"trebuchet ms",verdana,arial,sans-serif;color:#333;}#my-svg .cluster-label text{fill:#333;}#my-svg .cluster-label span{color:#333;}#my-svg .cluster-label span p{background-color:transparent;}#my-svg .label text,#my-svg span{fill:#333;color:#333;}#my-svg .node rect,#my-svg .node circle,#my-svg .node ellipse,#my-svg .node polygon,#my-svg .node path{fill:#ECECFF;stroke:#9370DB;stroke-width:1px;}#my-svg .rough-node .label text,#my-svg .node .label text,#my-svg .image-shape .label,#my-svg .icon-shape .label{text-anchor:middle;}#my-svg .node .katex path{fill:#000;stroke:#000;stroke-width:1px;}#my-svg .rough-node .label,#my-svg .node .label,#my-svg .image-shape .label,#my-svg .icon-shape .label{text-align:center;}#my-svg .node.clickable{cursor:pointer;}#my-svg .root .anchor path{fill:#333333!important;stroke-width:0;stroke:#333333;}#my-svg .arrowheadPath{fill:#333333;}#my-svg .edgePath .path{stroke:#333333;stroke-width:1px;}#my-svg .flowchart-link{stroke:#333333;fill:none;}#my-svg .edgeLabel{background-color:rgba(232,232,232, 0.8);text-align:center;}#my-svg .edgeLabel p{background-color:rgba(232,232,232, 0.8);}#my-svg .edgeLabel rect{opacity:0.5;background-color:rgba(232,232,232, 0.8);fill:rgba(232,232,232, 0.8);}#my-svg .labelBkg{background-color:rgba(232, 232, 232, 0.5);}#my-svg .cluster rect{fill:#ffffde;stroke:#aaaa33;stroke-width:1px;}#my-svg .cluster text{fill:#333;}#my-svg .cluster span{color:#333;}#my-svg div.mermaidTooltip{position:absolute;text-align:center;max-width:200px;padding:2px;font-family:"trebuchet ms",verdana,arial,sans-serif;font-size:12px;background:hsl(80, 100%, 96.2745098039%);border:1px solid #aaaa33;border-radius:2px;pointer-events:none;z-index:100;}#my-svg .flowchartTitleText{text-anchor:middle;font-size:18px;fill:#333;}#my-svg rect.text{fill:none;stroke-width:0;}#my-svg .icon-shape,#my-svg .image-shape{background-color:rgba(232,232,232, 0.8);text-align:center;}#my-svg .icon-shape p,#my-svg .image-shape p{background-color:rgba(232,232,232, 0.8);padding:2px;}#my-svg .icon-shape .label rect,#my-svg .image-shape .label rect{opacity:0.5;background-color:rgba(232,232,232, 0.8);fill:rgba(232,232,232, 0.8);}#my-svg .label-icon{display:inline-block;height:1em;overflow:visible;vertical-align:-0.125em;}#my-svg .node .label-icon path{fill:currentColor;stroke:revert;stroke-width:revert;}#my-svg .node .neo-node{stroke:#9370DB;}#my-svg [data-look="neo"].node rect,#my-svg [data-look="neo"].cluster rect,#my-svg [data-look="neo"].node polygon{stroke:#9370DB;filter:drop-shadow(1px 2px 2px rgba(185, 185, 185, 1));}#my-svg [data-look="neo"].node path{stroke:#9370DB;stroke-width:1px;}#my-svg [data-look="neo"].node .outer-path{filter:drop-shadow(1px 2px 2px rgba(185, 185, 185, 1));}#my-svg [data-look="neo"].node .neo-line path{stroke:#9370DB;filter:none;}#my-svg [data-look="neo"].node circle{stroke:#9370DB;filter:drop-shadow(1px 2px 2px rgba(185, 185, 185, 1));}#my-svg [data-look="neo"].node circle .state-start{fill:#000000;}#my-svg [data-look="neo"].icon-shape .icon{fill:#9370DB;filter:drop-shadow(1px 2px 2px rgba(185, 185, 185, 1));}#my-svg [data-look="neo"].icon-shape .icon-neo path{stroke:#9370DB;filter:drop-shadow(1px 2px 2px rgba(185, 185, 185, 1));}#my-svg :root{--mermaid-font-family:"trebuchet ms",verdana,arial,sans-serif;}</style><g><marker id="my-svg_flowchart-v2-pointEnd" class="marker flowchart-v2" viewBox="0 0 10 10" refX="5" refY="5" markerUnits="userSpaceOnUse" markerWidth="8" markerHeight="8" orient="auto"><path d="M 0 0 L 10 5 L 0 10 z" class="arrowMarkerPath" style="stroke-width: 1; stroke-dasharray: 1, 0;"/></marker><marker id="my-svg_flowchart-v2-pointStart" class="marker flowchart-v2" viewBox="0 0 10 10" refX="4.5" refY="5" markerUnits="userSpaceOnUse" markerWidth="8" markerHeight="8" orient="auto"><path d="M 0 5 L 10 10 L 10 0 z" class="arrowMarkerPath" style="stroke-width: 1; stroke-dasharray: 1, 0;"/></marker><marker id="my-svg_flowchart-v2-pointEnd-margin" class="marker flowchart-v2" viewBox="0 0 11.5 14" refX="11.5" refY="7" markerUnits="userSpaceOnUse" markerWidth="10.5" markerHeight="14" orient="auto"><path d="M 0 0 L 11.5 7 L 0 14 z" class="arrowMarkerPath" style="stroke-width: 0; stroke-dasharray: 1, 0;"/></marker><marker id="my-svg_flowchart-v2-pointStart-margin" class="marker flowchart-v2" viewBox="0 0 11.5 14" refX="1" refY="7" markerUnits="userSpaceOnUse" markerWidth="11.5" markerHeight="14" orient="auto"><polygon points="0,7 11.5,14 11.5,0" class="arrowMarkerPath" style="stroke-width: 0; stroke-dasharray: 1, 0;"/></marker><marker id="my-svg_flowchart-v2-circleEnd" class="marker flowchart-v2" viewBox="0 0 10 10" refX="11" refY="5" markerUnits="userSpaceOnUse" markerWidth="11" markerHeight="11" orient="auto"><circle cx="5" cy="5" r="5" class="arrowMarkerPath" style="stroke-width: 1; stroke-dasharray: 1, 0;"/></marker><marker id="my-svg_flowchart-v2-circleStart" class="marker flowchart-v2" viewBox="0 0 10 10" refX="-1" refY="5" markerUnits="userSpaceOnUse" markerWidth="11" markerHeight="11" orient="auto"><circle cx="5" cy="5" r="5" class="arrowMarkerPath" style="stroke-width: 1; stroke-dasharray: 1, 0;"/></marker><marker id="my-svg_flowchart-v2-circleEnd-margin" class="marker flowchart-v2" viewBox="0 0 10 10" refY="5" refX="12.25" markerUnits="userSpaceOnUse" markerWidth="14" markerHeight="14" orient="auto"><circle cx="5" cy="5" r="5" class="arrowMarkerPath" style="stroke-width: 0; stroke-dasharray: 1, 0;"/></marker><marker id="my-svg_flowchart-v2-circleStart-margin" class="marker flowchart-v2" viewBox="0 0 10 10" refX="-2" refY="5" markerUnits="userSpaceOnUse" markerWidth="14" markerHeight="14" orient="auto"><circle cx="5" cy="5" r="5" class="arrowMarkerPath" style="stroke-width: 0; stroke-dasharray: 1, 0;"/></marker><marker id="my-svg_flowchart-v2-crossEnd" class="marker cross flowchart-v2" viewBox="0 0 11 11" refX="12" refY="5.2" markerUnits="userSpaceOnUse" markerWidth="11" markerHeight="11" orient="auto"><path d="M 1,1 l 9,9 M 10,1 l -9,9" class="arrowMarkerPath" style="stroke-width: 2; stroke-dasharray: 1, 0;"/></marker><marker id="my-svg_flowchart-v2-crossStart" class="marker cross flowchart-v2" viewBox="0 0 11 11" refX="-1" refY="5.2" markerUnits="userSpaceOnUse" markerWidth="11" markerHeight="11" orient="auto"><path d="M 1,1 l 9,9 M 10,1 l -9,9" class="arrowMarkerPath" style="stroke-width: 2; stroke-dasharray: 1, 0;"/></marker><marker id="my-svg_flowchart-v2-crossEnd-margin" class="marker cross flowchart-v2" viewBox="0 0 15 15" refX="17.7" refY="7.5" markerUnits="userSpaceOnUse" markerWidth="12" markerHeight="12" orient="auto"><path d="M 1,1 L 14,14 M 1,14 L 14,1" class="arrowMarkerPath" style="stroke-width: 2.5;"/></marker><marker id="my-svg_flowchart-v2-crossStart-margin" class="marker cross flowchart-v2" viewBox="0 0 15 15" refX="-3.5" refY="7.5" markerUnits="userSpaceOnUse" markerWidth="12" markerHeight="12" orient="auto"><path d="M 1,1 L 14,14 M 1,14 L 14,1" class="arrowMarkerPath" style="stroke-width: 2.5; stroke-dasharray: 1, 0;"/></marker><g class="root"><g class="clusters"><g class="cluster" id="my-svg-L4" data-look="classic"><rect style="" x="25.046875" y="669" width="1014.40234375" height="128"/><g class="cluster-label" transform="translate(470.998046875, 669)"><foreignObject width="122.5" height="24"><div xmlns="http://www.w3.org/1999/xhtml" style="display: table-cell; white-space: nowrap; line-height: 1.5;"><span class="nodeLabel"><p>Layer 4: Controls</p></span></div></foreignObject></g></g><g class="cluster" id="my-svg-L3" data-look="classic"><rect style="" x="363.4375" y="186" width="585.92578125" height="433"/><g class="cluster-label" transform="translate(580.853515625, 186)"><foreignObject width="151.09375" height="24"><div xmlns="http://www.w3.org/1999/xhtml" style="display: table-cell; white-space: nowrap; line-height: 1.5;"><span class="nodeLabel"><p>Layer 3: Spend Chain</p></span></div></foreignObject></g></g><g class="cluster" id="my-svg-L2" data-look="classic"><rect style="" x="8" y="186" width="335.4375" height="280"/><g class="cluster-label" transform="translate(91.5859375, 186)"><foreignObject width="168.265625" height="24"><div xmlns="http://www.w3.org/1999/xhtml" style="display: table-cell; white-space: nowrap; line-height: 1.5;"><span class="nodeLabel"><p>Layer 2: Revenue Chain</p></span></div></foreignObject></g></g><g class="cluster" id="my-svg-L1" data-look="classic"><rect style="" x="25.046875" y="8" width="1024.40234375" height="128"/><g class="cluster-label" transform="translate(448.044921875, 8)"><foreignObject width="178.40625" height="24"><div xmlns="http://www.w3.org/1999/xhtml" style="display: table-cell; white-space: nowrap; line-height: 1.5;"><span class="nodeLabel"><p>Layer 1: Monitoring Shell</p></span></div></foreignObject></g></g></g><g class="edgePaths"><path d="M149.794,301L153.749,307.167C157.704,313.333,165.614,325.667,173.207,335.525C180.8,345.384,188.076,352.767,191.714,356.459L195.353,360.151" id="my-svg-L_I_R_0" class="edge-thickness-normal edge-pattern-solid edge-thickness-normal edge-pattern-solid flowchart-link" style=";" data-edge="true" data-et="edge" data-id="L_I_R_0" data-points="W3sieCI6MTQ5Ljc5MzY4ODMyMjM2ODQsInkiOjMwMX0seyJ4IjoxNzMuNTIzNDM3NSwieSI6MzM4fSx7IngiOjE5OC4xNjAyNzgzMjAzMTI1LCJ5IjozNjN9XQ==" data-look="classic" marker-end="url(#my-svg_flowchart-v2-pointEnd)"/><path d="M576.061,313L579.952,317.167C583.843,321.333,591.625,329.667,600.36,337.591C609.095,345.516,618.784,353.032,623.628,356.79L628.472,360.548" id="my-svg-L_PRC_SSB_0" class="edge-thickness-normal edge-pattern-solid edge-thickness-normal edge-pattern-solid flowchart-link" style=";" data-edge="true" data-et="edge" data-id="L_PRC_SSB_0" data-points="W3sieCI6NTc2LjA2MTI2NjQ0NzM2ODQsInkiOjMxM30seyJ4Ijo1OTkuNDA2MjUsInkiOjMzOH0seyJ4Ijo2MzEuNjMyODEyNSwieSI6MzYzfV0=" data-look="classic" marker-end="url(#my-svg_flowchart-v2-pointEnd)"/><path d="M721.818,441L726.082,445.167C730.346,449.333,738.874,457.667,743.138,466C747.402,474.333,747.402,482.667,751.528,490.554C755.653,498.44,763.903,505.881,768.029,509.601L772.154,513.321" id="my-svg-L_SSB_PQ_0" class="edge-thickness-normal edge-pattern-solid edge-thickness-normal edge-pattern-solid flowchart-link" style=";" data-edge="true" data-et="edge" data-id="L_SSB_PQ_0" data-points="W3sieCI6NzIxLjgxNzkzMjEyODkwNjIsInkiOjQ0MX0seyJ4Ijo3NDcuNDAyMzQzNzUsInkiOjQ2Nn0seyJ4Ijo3NDcuNDAyMzQzNzUsInkiOjQ5MX0seyJ4Ijo3NzUuMTI0NTExNzE4NzUsInkiOjUxNn1d" data-look="classic" marker-end="url(#my-svg_flowchart-v2-pointEnd)"/><path d="M119.65,301L118.838,307.167C118.027,313.333,116.404,325.667,115.593,342.5C114.781,359.333,114.781,380.667,114.781,402C114.781,423.333,114.781,444.667,114.781,459.5C114.781,474.333,114.781,482.667,114.781,497.5C114.781,512.333,114.781,533.667,114.781,555C114.781,576.333,114.781,597.667,114.781,612.5C114.781,627.333,114.781,635.667,114.781,644C114.781,652.333,114.781,660.667,157.792,672.345C200.804,684.023,286.826,699.045,329.837,706.557L372.849,714.068" id="my-svg-L_I_C_0" class="edge-thickness-normal edge-pattern-solid edge-thickness-normal edge-pattern-solid flowchart-link" style=";" data-edge="true" data-et="edge" data-id="L_I_C_0" data-points="W3sieCI6MTE5LjY0OTY3MTA1MjYzMTU4LCJ5IjozMDF9LHsieCI6MTE0Ljc4MTI1LCJ5IjozMzh9LHsieCI6MTE0Ljc4MTI1LCJ5Ijo0MDJ9LHsieCI6MTE0Ljc4MTI1LCJ5Ijo0NjZ9LHsieCI6MTE0Ljc4MTI1LCJ5Ijo0OTF9LHsieCI6MTE0Ljc4MTI1LCJ5Ijo1NTV9LHsieCI6MTE0Ljc4MTI1LCJ5Ijo2MTl9LHsieCI6MTE0Ljc4MTI1LCJ5Ijo2NDR9LHsieCI6MTE0Ljc4MTI1LCJ5Ijo2Njl9LHsieCI6Mzc2Ljc4OTA2MjUsInkiOjcxNC43NTU5OTU2NTExNTQzfV0=" data-look="classic" marker-end="url(#my-svg_flowchart-v2-pointEnd)"/><path d="M236.594,441L236.594,445.167C236.594,449.333,236.594,457.667,236.594,466C236.594,474.333,236.594,482.667,236.594,497.5C236.594,512.333,236.594,533.667,236.594,555C236.594,576.333,236.594,597.667,236.594,612.5C236.594,627.333,236.594,635.667,236.594,644C236.594,652.333,236.594,660.667,259.315,670.777C282.036,680.887,327.477,692.774,350.198,698.717L372.919,704.66" id="my-svg-L_R_C_0" class="edge-thickness-normal edge-pattern-solid edge-thickness-normal edge-pattern-solid flowchart-link" style=";" data-edge="true" data-et="edge" data-id="L_R_C_0" data-points="W3sieCI6MjM2LjU5Mzc1LCJ5Ijo0NDF9LHsieCI6MjM2LjU5Mzc1LCJ5Ijo0NjZ9LHsieCI6MjM2LjU5Mzc1LCJ5Ijo0OTF9LHsieCI6MjM2LjU5Mzc1LCJ5Ijo1NTV9LHsieCI6MjM2LjU5Mzc1LCJ5Ijo2MTl9LHsieCI6MjM2LjU5Mzc1LCJ5Ijo2NDR9LHsieCI6MjM2LjU5Mzc1LCJ5Ijo2Njl9LHsieCI6Mzc2Ljc4OTA2MjUsInkiOjcwNS42NzI3MzM2NTkwMzV9XQ==" data-look="classic" marker-end="url(#my-svg_flowchart-v2-pointEnd)"/><path d="M486.497,313L483.07,317.167C479.644,321.333,472.791,329.667,469.364,344.5C465.938,359.333,465.938,380.667,465.938,402C465.938,423.333,465.938,444.667,465.938,459.5C465.938,474.333,465.938,482.667,465.938,497.5C465.938,512.333,465.938,533.667,465.938,555C465.938,576.333,465.938,597.667,465.938,612.5C465.938,627.333,465.938,635.667,465.938,644C465.938,652.333,465.938,660.667,466.78,668.352C467.622,676.037,469.306,683.073,470.149,686.592L470.991,690.11" id="my-svg-L_PRC_C_0" class="edge-thickness-normal edge-pattern-solid edge-thickness-normal edge-pattern-solid flowchart-link" style=";" data-edge="true" data-et="edge" data-id="L_PRC_C_0" data-points="W3sieCI6NDg2LjQ5NjcxMDUyNjMxNTgsInkiOjMxM30seyJ4Ijo0NjUuOTM3NSwieSI6MzM4fSx7IngiOjQ2NS45Mzc1LCJ5Ijo0MDJ9LHsieCI6NDY1LjkzNzUsInkiOjQ2Nn0seyJ4Ijo0NjUuOTM3NSwieSI6NDkxfSx7IngiOjQ2NS45Mzc1LCJ5Ijo1NTV9LHsieCI6NDY1LjkzNzUsInkiOjYxOX0seyJ4Ijo0NjUuOTM3NSwieSI6NjQ0fSx7IngiOjQ2NS45Mzc1LCJ5Ijo2Njl9LHsieCI6NDcxLjkyMTk5NzA3MDMxMjUsInkiOjY5NH1d" data-look="classic" marker-end="url(#my-svg_flowchart-v2-pointEnd)"/><path d="M599.641,441L590.852,445.167C582.063,449.333,564.484,457.667,555.695,466C546.906,474.333,546.906,482.667,546.906,497.5C546.906,512.333,546.906,533.667,546.906,555C546.906,576.333,546.906,597.667,546.906,612.5C546.906,627.333,546.906,635.667,546.906,644C546.906,652.333,546.906,660.667,543.11,668.535C539.313,676.403,531.72,683.805,527.923,687.506L524.126,691.208" id="my-svg-L_SSB_C_0" class="edge-thickness-normal edge-pattern-solid edge-thickness-normal edge-pattern-solid flowchart-link" style=";" data-edge="true" data-et="edge" data-id="L_SSB_C_0" data-points="W3sieCI6NTk5LjY0MDYyNSwieSI6NDQxfSx7IngiOjU0Ni45MDYyNSwieSI6NDY2fSx7IngiOjU0Ni45MDYyNSwieSI6NDkxfSx7IngiOjU0Ni45MDYyNSwieSI6NTU1fSx7IngiOjU0Ni45MDYyNSwieSI6NjE5fSx7IngiOjU0Ni45MDYyNSwieSI6NjQ0fSx7IngiOjU0Ni45MDYyNSwieSI6NjY5fSx7IngiOjUyMS4yNjIzMjkxMDE1NjI1LCJ5Ijo2OTR9XQ==" data-look="classic" marker-end="url(#my-svg_flowchart-v2-pointEnd)"/><path d="M818.371,594L818.371,598.167C818.371,602.333,818.371,610.667,818.371,619C818.371,627.333,818.371,635.667,818.371,644C818.371,652.333,818.371,660.667,780.252,672.07C742.133,683.474,665.895,697.947,627.775,705.184L589.656,712.421" id="my-svg-L_PQ_C_0" class="edge-thickness-normal edge-pattern-solid edge-thickness-normal edge-pattern-solid flowchart-link" style=";" data-edge="true" data-et="edge" data-id="L_PQ_C_0" data-points="W3sieCI6ODE4LjM3MTA5Mzc1LCJ5Ijo1OTR9LHsieCI6ODE4LjM3MTA5Mzc1LCJ5Ijo2MTl9LHsieCI6ODE4LjM3MTA5Mzc1LCJ5Ijo2NDR9LHsieCI6ODE4LjM3MTA5Mzc1LCJ5Ijo2Njl9LHsieCI6NTg1LjcyNjU2MjUsInkiOjcxMy4xNjY5MDQyMDczNjcyfV0=" data-look="classic" marker-end="url(#my-svg_flowchart-v2-pointEnd)"/><path d="M585.727,719.302L649.666,710.918C713.605,702.535,841.484,685.767,905.424,673.217C969.363,660.667,969.363,652.333,969.363,644C969.363,635.667,969.363,627.333,969.363,612.5C969.363,597.667,969.363,576.333,969.363,555C969.363,533.667,969.363,512.333,969.363,497.5C969.363,482.667,969.363,474.333,969.363,459.5C969.363,444.667,969.363,423.333,969.363,402C969.363,380.667,969.363,359.333,969.363,336C969.363,312.667,969.363,287.333,969.363,262C969.363,236.667,969.363,211.333,969.363,194.5C969.363,177.667,969.363,169.333,969.363,161C969.363,152.667,969.363,144.333,934.429,133.151C899.495,121.969,829.626,107.939,794.692,100.923L759.758,93.908" id="my-svg-L_C_O_0" class="edge-thickness-normal edge-pattern-solid edge-thickness-normal edge-pattern-solid flowchart-link" style=";" data-edge="true" data-et="edge" data-id="L_C_O_0" data-points="W3sieCI6NTg1LjcyNjU2MjUsInkiOjcxOS4zMDIxNDA3NzA2Nzc0fSx7IngiOjk2OS4zNjMyODEyNSwieSI6NjY5fSx7IngiOjk2OS4zNjMyODEyNSwieSI6NjQ0fSx7IngiOjk2OS4zNjMyODEyNSwieSI6NjE5fSx7IngiOjk2OS4zNjMyODEyNSwieSI6NTU1fSx7IngiOjk2OS4zNjMyODEyNSwieSI6NDkxfSx7IngiOjk2OS4zNjMyODEyNSwieSI6NDY2fSx7IngiOjk2OS4zNjMyODEyNSwieSI6NDAyfSx7IngiOjk2OS4zNjMyODEyNSwieSI6MzM4fSx7IngiOjk2OS4zNjMyODEyNSwieSI6MjYyfSx7IngiOjk2OS4zNjMyODEyNSwieSI6MTg2fSx7IngiOjk2OS4zNjMyODEyNSwieSI6MTYxfSx7IngiOjk2OS4zNjMyODEyNSwieSI6MTM2fSx7IngiOjc1NS44MzU5Mzc1LCJ5Ijo5My4xMjAyMjc0ODcyMjIyMn1d" data-look="classic" marker-end="url(#my-svg_flowchart-v2-pointEnd)"/><path d="M149.794,223L153.749,216.833C157.704,210.667,165.614,198.333,169.568,188C173.523,177.667,173.523,169.333,173.523,161C173.523,152.667,173.523,144.333,234.857,131.94C296.192,119.546,418.86,103.092,480.194,94.866L541.528,86.639" id="my-svg-L_I_O_0" class="edge-thickness-normal edge-pattern-solid edge-thickness-normal edge-pattern-solid flowchart-link" style=";" data-edge="true" data-et="edge" data-id="L_I_O_0" data-points="W3sieCI6MTQ5Ljc5MzY4ODMyMjM2ODQsInkiOjIyM30seyJ4IjoxNzMuNTIzNDM3NSwieSI6MTg2fSx7IngiOjE3My41MjM0Mzc1LCJ5IjoxNjF9LHsieCI6MTczLjUyMzQzNzUsInkiOjEzNn0seyJ4Ijo1NDUuNDkyMTg3NSwieSI6ODYuMTA2OTUyMjIxODk0NzR9XQ==" data-look="classic" marker-end="url(#my-svg_flowchart-v2-pointEnd)"/><path d="M269.148,363L272.626,358.833C276.104,354.667,283.06,346.333,286.538,329.5C290.016,312.667,290.016,287.333,290.016,262C290.016,236.667,290.016,211.333,290.016,194.5C290.016,177.667,290.016,169.333,290.016,161C290.016,152.667,290.016,144.333,331.939,132.727C373.862,121.121,457.708,106.242,499.631,98.802L541.554,91.363" id="my-svg-L_R_O_0" class="edge-thickness-normal edge-pattern-solid edge-thickness-normal edge-pattern-solid flowchart-link" style=";" data-edge="true" data-et="edge" data-id="L_R_O_0" data-points="W3sieCI6MjY5LjE0NzcwNTA3ODEyNSwieSI6MzYzfSx7IngiOjI5MC4wMTU2MjUsInkiOjMzOH0seyJ4IjoyOTAuMDE1NjI1LCJ5IjoyNjJ9LHsieCI6MjkwLjAxNTYyNSwieSI6MTg2fSx7IngiOjI5MC4wMTU2MjUsInkiOjE2MX0seyJ4IjoyOTAuMDE1NjI1LCJ5IjoxMzZ9LHsieCI6NTQ1LjQ5MjE4NzUsInkiOjkwLjY2MzYwNTA1MTY2NDc1fV0=" data-look="classic" marker-end="url(#my-svg_flowchart-v2-pointEnd)"/><path d="M580.659,211L584.925,206.833C589.192,202.667,597.725,194.333,601.991,186C606.258,177.667,606.258,169.333,606.258,161C606.258,152.667,606.258,144.333,608.769,136.548C611.28,128.762,616.302,121.524,618.813,117.905L621.324,114.286" id="my-svg-L_PRC_O_0" class="edge-thickness-normal edge-pattern-solid edge-thickness-normal edge-pattern-solid flowchart-link" style=";" data-edge="true" data-et="edge" data-id="L_PRC_O_0" data-points="W3sieCI6NTgwLjY1OTAyNTQ5MzQyMSwieSI6MjExfSx7IngiOjYwNi4yNTc4MTI1LCJ5IjoxODZ9LHsieCI6NjA2LjI1NzgxMjUsInkiOjE2MX0seyJ4Ijo2MDYuMjU3ODEyNSwieSI6MTM2fSx7IngiOjYyMy42MDQwMDM5MDYyNSwieSI6MTExfV0=" data-look="classic" marker-end="url(#my-svg_flowchart-v2-pointEnd)"/><path d="M735.422,363L741.139,358.833C746.857,354.667,758.292,346.333,764.009,329.5C769.727,312.667,769.727,287.333,769.727,262C769.727,236.667,769.727,211.333,769.727,194.5C769.727,177.667,769.727,169.333,769.727,161C769.727,152.667,769.727,144.333,762.562,136.316C755.398,128.298,741.07,120.596,733.905,116.745L726.741,112.894" id="my-svg-L_SSB_O_0" class="edge-thickness-normal edge-pattern-solid edge-thickness-normal edge-pattern-solid flowchart-link" style=";" data-edge="true" data-et="edge" data-id="L_SSB_O_0" data-points="W3sieCI6NzM1LjQyMTc1MjkyOTY4NzUsInkiOjM2M30seyJ4Ijo3NjkuNzI2NTYyNSwieSI6MzM4fSx7IngiOjc2OS43MjY1NjI1LCJ5IjoyNjJ9LHsieCI6NzY5LjcyNjU2MjUsInkiOjE4Nn0seyJ4Ijo3NjkuNzI2NTYyNSwieSI6MTYxfSx7IngiOjc2OS43MjY1NjI1LCJ5IjoxMzZ9LHsieCI6NzIzLjIxNzc3MzQzNzUsInkiOjExMX1d" data-look="classic" marker-end="url(#my-svg_flowchart-v2-pointEnd)"/><path d="M858.283,516L862.547,511.833C866.811,507.667,875.339,499.333,879.603,491C883.867,482.667,883.867,474.333,883.867,459.5C883.867,444.667,883.867,423.333,883.867,402C883.867,380.667,883.867,359.333,883.867,336C883.867,312.667,883.867,287.333,883.867,262C883.867,236.667,883.867,211.333,883.867,194.5C883.867,177.667,883.867,169.333,883.867,161C883.867,152.667,883.867,144.333,863.172,134.487C842.476,124.641,801.085,113.281,780.389,107.602L759.693,101.922" id="my-svg-L_PQ_O_0" class="edge-thickness-normal edge-pattern-solid edge-thickness-normal edge-pattern-solid flowchart-link" style=";" data-edge="true" data-et="edge" data-id="L_PQ_O_0" data-points="W3sieCI6ODU4LjI4Mjc3NTg3ODkwNjIsInkiOjUxNn0seyJ4Ijo4ODMuODY3MTg3NSwieSI6NDkxfSx7IngiOjg4My44NjcxODc1LCJ5Ijo0NjZ9LHsieCI6ODgzLjg2NzE4NzUsInkiOjQwMn0seyJ4Ijo4ODMuODY3MTg3NSwieSI6MzM4fSx7IngiOjg4My44NjcxODc1LCJ5IjoyNjJ9LHsieCI6ODgzLjg2NzE4NzUsInkiOjE4Nn0seyJ4Ijo4ODMuODY3MTg3NSwieSI6MTYxfSx7IngiOjg4My44NjcxODc1LCJ5IjoxMzZ9LHsieCI6NzU1LjgzNTkzNzUsInkiOjEwMC44NjMyNDk1ODEyMzk1M31d" data-look="classic" marker-end="url(#my-svg_flowchart-v2-pointEnd)"/><path d="M545.492,84.561L473.707,93.134C401.922,101.707,258.352,118.854,186.566,131.593C114.781,144.333,114.781,152.667,114.781,161C114.781,169.333,114.781,177.667,115.506,187.339C116.23,197.011,117.679,208.023,118.403,213.528L119.128,219.034" id="my-svg-L_O_I_0" class="edge-thickness-normal edge-pattern-dotted edge-thickness-normal edge-pattern-solid flowchart-link" style=";" data-edge="true" data-et="edge" data-id="L_O_I_0" data-points="W3sieCI6NTQ1LjQ5MjE4NzUsInkiOjg0LjU2MDU4MTk4MzU4NDMzfSx7IngiOjExNC43ODEyNSwieSI6MTM2fSx7IngiOjExNC43ODEyNSwieSI6MTYxfSx7IngiOjExNC43ODEyNSwieSI6MTg2fSx7IngiOjExOS42NDk2NzEwNTI2MzE1OCwieSI6MjIzfV0=" data-look="classic" marker-end="url(#my-svg_flowchart-v2-pointEnd)"/><path d="M545.492,88.467L494.896,96.389C444.299,104.312,343.107,120.156,292.51,132.245C241.914,144.333,241.914,152.667,241.914,161C241.914,169.333,241.914,177.667,241.914,194.5C241.914,211.333,241.914,236.667,241.914,262C241.914,287.333,241.914,312.667,241.623,328.836C241.332,345.005,240.749,352.009,240.458,355.511L240.167,359.014" id="my-svg-L_O_R_0" class="edge-thickness-normal edge-pattern-dotted edge-thickness-normal edge-pattern-solid flowchart-link" style=";" data-edge="true" data-et="edge" data-id="L_O_R_0" data-points="W3sieCI6NTQ1LjQ5MjE4NzUsInkiOjg4LjQ2NzI3ODI4NzQ2MTc3fSx7IngiOjI0MS45MTQwNjI1LCJ5IjoxMzZ9LHsieCI6MjQxLjkxNDA2MjUsInkiOjE2MX0seyJ4IjoyNDEuOTE0MDYyNSwieSI6MTg2fSx7IngiOjI0MS45MTQwNjI1LCJ5IjoyNjJ9LHsieCI6MjQxLjkxNDA2MjUsInkiOjMzOH0seyJ4IjoyMzkuODM1ODE1NDI5Njg3NSwieSI6MzYzfV0=" data-look="classic" marker-end="url(#my-svg_flowchart-v2-pointEnd)"/><path d="M545.492,108.438L532.233,113.031C518.974,117.625,492.456,126.813,479.197,135.573C465.938,144.333,465.938,152.667,465.938,161C465.938,169.333,465.938,177.667,468.941,185.485C471.944,193.304,477.95,200.607,480.953,204.259L483.956,207.911" id="my-svg-L_O_PRC_0" class="edge-thickness-normal edge-pattern-dotted edge-thickness-normal edge-pattern-solid flowchart-link" style=";" data-edge="true" data-et="edge" data-id="L_O_PRC_0" data-points="W3sieCI6NTQ1LjQ5MjE4NzUsInkiOjEwOC40Mzc2NDAwOTMwNDI5M30seyJ4Ijo0NjUuOTM3NSwieSI6MTM2fSx7IngiOjQ2NS45Mzc1LCJ5IjoxNjF9LHsieCI6NDY1LjkzNzUsInkiOjE4Nn0seyJ4Ijo0ODYuNDk2NzEwNTI2MzE1OCwieSI6MjExfV0=" data-look="classic" marker-end="url(#my-svg_flowchart-v2-pointEnd)"/><path d="M679.971,111L683.102,115.167C686.233,119.333,692.496,127.667,695.627,136C698.758,144.333,698.758,152.667,698.758,161C698.758,169.333,698.758,177.667,698.758,194.5C698.758,211.333,698.758,236.667,698.758,262C698.758,287.333,698.758,312.667,697.83,328.855C696.903,345.044,695.048,352.088,694.121,355.61L693.194,359.132" id="my-svg-L_O_SSB_0" class="edge-thickness-normal edge-pattern-dotted edge-thickness-normal edge-pattern-solid flowchart-link" style=";" data-edge="true" data-et="edge" data-id="L_O_SSB_0" data-points="W3sieCI6Njc5Ljk3MTE5MTQwNjI1LCJ5IjoxMTF9LHsieCI6Njk4Ljc1NzgxMjUsInkiOjEzNn0seyJ4Ijo2OTguNzU3ODEyNSwieSI6MTYxfSx7IngiOjY5OC43NTc4MTI1LCJ5IjoxODZ9LHsieCI6Njk4Ljc1NzgxMjUsInkiOjI2Mn0seyJ4Ijo2OTguNzU3ODEyNSwieSI6MzM4fSx7IngiOjY5Mi4xNzUxNzA4OTg0Mzc1LCJ5IjozNjN9XQ==" data-look="classic" marker-end="url(#my-svg_flowchart-v2-pointEnd)"/><path d="M755.836,107.42L769.979,112.184C784.122,116.947,812.409,126.473,826.552,135.403C840.695,144.333,840.695,152.667,840.695,161C840.695,169.333,840.695,177.667,840.695,194.5C840.695,211.333,840.695,236.667,840.695,262C840.695,287.333,840.695,312.667,840.695,336C840.695,359.333,840.695,380.667,840.695,402C840.695,423.333,840.695,444.667,840.695,459.5C840.695,474.333,840.695,482.667,839.461,490.371C838.228,498.074,835.76,505.149,834.526,508.686L833.292,512.223" id="my-svg-L_O_PQ_0" class="edge-thickness-normal edge-pattern-dotted edge-thickness-normal edge-pattern-solid flowchart-link" style=";" data-edge="true" data-et="edge" data-id="L_O_PQ_0" data-points="W3sieCI6NzU1LjgzNTkzNzUsInkiOjEwNy40MjA0OTAwNTA5Nzg0Nn0seyJ4Ijo4NDAuNjk1MzEyNSwieSI6MTM2fSx7IngiOjg0MC42OTUzMTI1LCJ5IjoxNjF9LHsieCI6ODQwLjY5NTMxMjUsInkiOjE4Nn0seyJ4Ijo4NDAuNjk1MzEyNSwieSI6MjYyfSx7IngiOjg0MC42OTUzMTI1LCJ5IjozMzh9LHsieCI6ODQwLjY5NTMxMjUsInkiOjQwMn0seyJ4Ijo4NDAuNjk1MzEyNSwieSI6NDY2fSx7IngiOjg0MC42OTUzMTI1LCJ5Ijo0OTF9LHsieCI6ODMxLjk3NDkxNDU1MDc4MTIsInkiOjUxNn1d" data-look="classic" marker-end="url(#my-svg_flowchart-v2-pointEnd)"/></g><g class="edgeLabels"><g class="edgeLabel"><g class="label" data-id="L_I_R_0" transform="translate(0, 0)"><foreignObject width="0" height="0"><div xmlns="http://www.w3.org/1999/xhtml" class="labelBkg" style="display: table-cell; white-space: nowrap; line-height: 1.5; max-width: 200px; text-align: center;"><span class="edgeLabel"></span></div></foreignObject></g></g><g class="edgeLabel"><g class="label" data-id="L_PRC_SSB_0" transform="translate(0, 0)"><foreignObject width="0" height="0"><div xmlns="http://www.w3.org/1999/xhtml" class="labelBkg" style="display: table-cell; white-space: nowrap; line-height: 1.5; max-width: 200px; text-align: center;"><span class="edgeLabel"></span></div></foreignObject></g></g><g class="edgeLabel"><g class="label" data-id="L_SSB_PQ_0" transform="translate(0, 0)"><foreignObject width="0" height="0"><div xmlns="http://www.w3.org/1999/xhtml" class="labelBkg" style="display: table-cell; white-space: nowrap; line-height: 1.5; max-width: 200px; text-align: center;"><span class="edgeLabel"></span></div></foreignObject></g></g><g class="edgeLabel"><g class="label" data-id="L_I_C_0" transform="translate(0, 0)"><foreignObject width="0" height="0"><div xmlns="http://www.w3.org/1999/xhtml" class="labelBkg" style="display: table-cell; white-space: nowrap; line-height: 1.5; max-width: 200px; text-align: center;"><span class="edgeLabel"></span></div></foreignObject></g></g><g class="edgeLabel"><g class="label" data-id="L_R_C_0" transform="translate(0, 0)"><foreignObject width="0" height="0"><div xmlns="http://www.w3.org/1999/xhtml" class="labelBkg" style="display: table-cell; white-space: nowrap; line-height: 1.5; max-width: 200px; text-align: center;"><span class="edgeLabel"></span></div></foreignObject></g></g><g class="edgeLabel"><g class="label" data-id="L_PRC_C_0" transform="translate(0, 0)"><foreignObject width="0" height="0"><div xmlns="http://www.w3.org/1999/xhtml" class="labelBkg" style="display: table-cell; white-space: nowrap; line-height: 1.5; max-width: 200px; text-align: center;"><span class="edgeLabel"></span></div></foreignObject></g></g><g class="edgeLabel"><g class="label" data-id="L_SSB_C_0" transform="translate(0, 0)"><foreignObject width="0" height="0"><div xmlns="http://www.w3.org/1999/xhtml" class="labelBkg" style="display: table-cell; white-space: nowrap; line-height: 1.5; max-width: 200px; text-align: center;"><span class="edgeLabel"></span></div></foreignObject></g></g><g class="edgeLabel"><g class="label" data-id="L_PQ_C_0" transform="translate(0, 0)"><foreignObject width="0" height="0"><div xmlns="http://www.w3.org/1999/xhtml" class="labelBkg" style="display: table-cell; white-space: nowrap; line-height: 1.5; max-width: 200px; text-align: center;"><span class="edgeLabel"></span></div></foreignObject></g></g><g class="edgeLabel"><g class="label" data-id="L_C_O_0" transform="translate(0, 0)"><foreignObject width="0" height="0"><div xmlns="http://www.w3.org/1999/xhtml" class="labelBkg" style="display: table-cell; white-space: nowrap; line-height: 1.5; max-width: 200px; text-align: center;"><span class="edgeLabel"></span></div></foreignObject></g></g><g class="edgeLabel"><g class="label" data-id="L_I_O_0" transform="translate(0, 0)"><foreignObject width="0" height="0"><div xmlns="http://www.w3.org/1999/xhtml" class="labelBkg" style="display: table-cell; white-space: nowrap; line-height: 1.5; max-width: 200px; text-align: center;"><span class="edgeLabel"></span></div></foreignObject></g></g><g class="edgeLabel"><g class="label" data-id="L_R_O_0" transform="translate(0, 0)"><foreignObject width="0" height="0"><div xmlns="http://www.w3.org/1999/xhtml" class="labelBkg" style="display: table-cell; white-space: nowrap; line-height: 1.5; max-width: 200px; text-align: center;"><span class="edgeLabel"></span></div></foreignObject></g></g><g class="edgeLabel"><g class="label" data-id="L_PRC_O_0" transform="translate(0, 0)"><foreignObject width="0" height="0"><div xmlns="http://www.w3.org/1999/xhtml" class="labelBkg" style="display: table-cell; white-space: nowrap; line-height: 1.5; max-width: 200px; text-align: center;"><span class="edgeLabel"></span></div></foreignObject></g></g><g class="edgeLabel"><g class="label" data-id="L_SSB_O_0" transform="translate(0, 0)"><foreignObject width="0" height="0"><div xmlns="http://www.w3.org/1999/xhtml" class="labelBkg" style="display: table-cell; white-space: nowrap; line-height: 1.5; max-width: 200px; text-align: center;"><span class="edgeLabel"></span></div></foreignObject></g></g><g class="edgeLabel"><g class="label" data-id="L_PQ_O_0" transform="translate(0, 0)"><foreignObject width="0" height="0"><div xmlns="http://www.w3.org/1999/xhtml" class="labelBkg" style="display: table-cell; white-space: nowrap; line-height: 1.5; max-width: 200px; text-align: center;"><span class="edgeLabel"></span></div></foreignObject></g></g><g class="edgeLabel"><g class="label" data-id="L_O_I_0" transform="translate(0, 0)"><foreignObject width="0" height="0"><div xmlns="http://www.w3.org/1999/xhtml" class="labelBkg" style="display: table-cell; white-space: nowrap; line-height: 1.5; max-width: 200px; text-align: center;"><span class="edgeLabel"></span></div></foreignObject></g></g><g class="edgeLabel"><g class="label" data-id="L_O_R_0" transform="translate(0, 0)"><foreignObject width="0" height="0"><div xmlns="http://www.w3.org/1999/xhtml" class="labelBkg" style="display: table-cell; white-space: nowrap; line-height: 1.5; max-width: 200px; text-align: center;"><span class="edgeLabel"></span></div></foreignObject></g></g><g class="edgeLabel"><g class="label" data-id="L_O_PRC_0" transform="translate(0, 0)"><foreignObject width="0" height="0"><div xmlns="http://www.w3.org/1999/xhtml" class="labelBkg" style="display: table-cell; white-space: nowrap; line-height: 1.5; max-width: 200px; text-align: center;"><span class="edgeLabel"></span></div></foreignObject></g></g><g class="edgeLabel"><g class="label" data-id="L_O_SSB_0" transform="translate(0, 0)"><foreignObject width="0" height="0"><div xmlns="http://www.w3.org/1999/xhtml" class="labelBkg" style="display: table-cell; white-space: nowrap; line-height: 1.5; max-width: 200px; text-align: center;"><span class="edgeLabel"></span></div></foreignObject></g></g><g class="edgeLabel"><g class="label" data-id="L_O_PQ_0" transform="translate(0, 0)"><foreignObject width="0" height="0"><div xmlns="http://www.w3.org/1999/xhtml" class="labelBkg" style="display: table-cell; white-space: nowrap; line-height: 1.5; max-width: 200px; text-align: center;"><span class="edgeLabel"></span></div></foreignObject></g></g></g><g class="nodes"><g class="node default" id="my-svg-flowchart-O-0" data-look="classic" transform="translate(650.6640625, 72)"><rect class="basic label-container" style="" x="-105.171875" y="-39" width="210.34375" height="78"/><g class="label" style="" transform="translate(-75.171875, -24)"><rect/><foreignObject width="150.34375" height="48"><div xmlns="http://www.w3.org/1999/xhtml" style="display: table-cell; white-space: nowrap; line-height: 1.5; max-width: 200px; text-align: center;"><span class="nodeLabel"><p>Overview<br />Monitoring &amp; Routing</p></span></div></foreignObject></g></g><g class="node default" id="my-svg-flowchart-I-1" data-look="classic" transform="translate(124.78125, 262)"><rect class="basic label-container" style="" x="-81.78125" y="-39" width="163.5625" height="78"/><g class="label" style="" transform="translate(-51.78125, -24)"><rect/><foreignObject width="103.5625" height="48"><div xmlns="http://www.w3.org/1999/xhtml" style="display: table-cell; white-space: nowrap; line-height: 1.5; max-width: 200px; text-align: center;"><span class="nodeLabel"><p>Invoicing<br />Truth Creation</p></span></div></foreignObject></g></g><g class="node default" id="my-svg-flowchart-R-2" data-look="classic" transform="translate(236.59375, 402)"><rect class="basic label-container" style="" x="-71.84375" y="-39" width="143.6875" height="78"/><g class="label" style="" transform="translate(-41.84375, -24)"><rect/><foreignObject width="83.6875" height="48"><div xmlns="http://www.w3.org/1999/xhtml" style="display: table-cell; white-space: nowrap; line-height: 1.5; max-width: 200px; text-align: center;"><span class="nodeLabel"><p>Receivables<br />Follow-up</p></span></div></foreignObject></g></g><g class="node default" id="my-svg-flowchart-PRC-3" data-look="classic" transform="translate(528.4375, 262)"><rect class="basic label-container" style="" x="-130" y="-51" width="260" height="102"/><g class="label" style="" transform="translate(-100, -36)"><rect/><foreignObject width="200" height="72"><div xmlns="http://www.w3.org/1999/xhtml" style="display: table; white-space: break-spaces; line-height: 1.5; max-width: 200px; text-align: center; width: 200px;"><span class="nodeLabel"><p>Purchase Requests / Commitments<br />Upstream Approval</p></span></div></foreignObject></g></g><g class="node default" id="my-svg-flowchart-SSB-4" data-look="classic" transform="translate(681.90625, 402)"><rect class="basic label-container" style="" x="-106.9375" y="-39" width="213.875" height="78"/><g class="label" style="" transform="translate(-76.9375, -24)"><rect/><foreignObject width="153.875" height="48"><div xmlns="http://www.w3.org/1999/xhtml" style="display: table-cell; white-space: nowrap; line-height: 1.5; max-width: 200px; text-align: center;"><span class="nodeLabel"><p>Spend / Supplier Bills<br />Readiness Formation</p></span></div></foreignObject></g></g><g class="node default" id="my-svg-flowchart-PQ-6" data-look="classic" transform="translate(818.37109375, 555)"><rect class="basic label-container" style="" x="-95.9921875" y="-39" width="191.984375" height="78"/><g class="label" style="" transform="translate(-65.9921875, -24)"><rect/><foreignObject width="131.984375" height="48"><div xmlns="http://www.w3.org/1999/xhtml" style="display: table-cell; white-space: nowrap; line-height: 1.5; max-width: 200px; text-align: center;"><span class="nodeLabel"><p>Payments Queue<br />Execution Handoff</p></span></div></foreignObject></g></g><g class="node default" id="my-svg-flowchart-C-7" data-look="classic" transform="translate(481.2578125, 733)"><rect class="basic label-container" style="" x="-104.46875" y="-39" width="208.9375" height="78"/><g class="label" style="" transform="translate(-74.46875, -24)"><rect/><foreignObject width="148.9375" height="48"><div xmlns="http://www.w3.org/1999/xhtml" style="display: table-cell; white-space: nowrap; line-height: 1.5; max-width: 200px; text-align: center;"><span class="nodeLabel"><p>Controls<br />Budget - Audit - Cost</p></span></div></foreignObject></g></g></g></g></g><defs><filter id="my-svg-drop-shadow" height="130%" width="130%"><feDropShadow dx="4" dy="4" stdDeviation="0" flood-opacity="0.06" flood-color="#000000"/></filter></defs><defs><filter id="my-svg-drop-shadow-small" height="150%" width="150%"><feDropShadow dx="2" dy="2" stdDeviation="0" flood-opacity="0.06" flood-color="#000000"/></filter></defs></svg>